<svg width="79" height="69" viewBox="0 0 79 69" fill="none" xmlns="http://www.w3.org/2000/svg">
<g filter="url(#filter0_b_522_6154)">
<rect width="78.1593" height="69" rx="20" fill="white" fill-opacity="0.9"/>
</g>
<g opacity="0.8">
<path d="M59.7133 28.4603C59.5321 28.4206 59.2976 28.4143 59.0711 28.3647C56.0355 27.7002 53.9159 25.1207 53.8262 22.2654L46.1691 20.5893L38.5121 18.9132C37.4238 21.5107 34.5142 22.9893 31.5238 22.3347C31.2973 22.2852 31.1161 22.2455 30.8974 22.1526C30.0947 24.9927 27.3792 41.3675 40.6302 50.8398C56.1951 47.6752 59.4543 31.4193 59.7133 28.4603Z" fill="#92C02C"/>
<g filter="url(#filter1_d_522_6154)">
<path d="M49.3583 21.0578C49.1583 21.0805 48.9164 21.1615 48.6663 21.1899C45.3154 21.5713 42.1793 19.4169 41.0127 16.1834L32.5603 17.1455L24.108 18.1075C23.9743 21.489 21.5589 24.2752 18.258 24.6509C18.0079 24.6794 17.8079 24.7022 17.5496 24.6781C17.7988 28.2298 21.1897 47.9881 38.291 53.8429C52.9984 44.3677 50.2077 24.5411 49.3583 21.0578Z" fill="#E8EFF1"/>
</g>
<path d="M37.9802 51.8489C31.5955 49.4234 26.625 44.6464 23.1433 37.6697C20.9216 33.2209 19.933 28.8455 19.4895 26.3315C22.5827 25.6055 24.9807 23.0352 25.6472 19.8071L39.9999 18.1735C41.6337 21.1398 44.6785 23.0372 47.9447 23.0929C48.3382 25.6126 48.6767 30.062 47.8978 34.8523C46.7787 42.3526 43.3976 48.0802 37.9802 51.8489Z" fill="#92C02C"/>
<path d="M48.0297 34.6474C48.7988 29.9123 48.4196 25.5187 48.0835 23.0216C44.929 23.0098 41.879 21.0846 40.2743 18.1505L33.1924 18.9539L38.225 51.4989C43.5466 47.7262 46.8751 42.067 48.0297 34.6474Z" fill="#B9CE19"/>
<path d="M37.654 35.1161L38.4015 39.9038L34.3432 40.3658L33.5958 35.5782L29.0365 36.0972L28.3712 31.8357L32.9305 31.3167L32.183 26.529L36.2413 26.067L36.9887 30.8546L41.548 30.3355L42.2133 34.5971L37.654 35.1161Z" fill="#FEFEFE"/>
</g>
<defs>
<filter id="filter0_b_522_6154" x="-20" y="-20" width="118.159" height="109" filterUnits="userSpaceOnUse" color-interpolation-filters="sRGB">
<feFlood flood-opacity="0" result="BackgroundImageFix"/>
<feGaussianBlur in="BackgroundImage" stdDeviation="10"/>
<feComposite in2="SourceAlpha" operator="in" result="effect1_backgroundBlur_522_6154"/>
<feBlend mode="normal" in="SourceGraphic" in2="effect1_backgroundBlur_522_6154" result="shape"/>
</filter>
<filter id="filter1_d_522_6154" x="17.5496" y="14.1833" width="40.5852" height="45.6594" filterUnits="userSpaceOnUse" color-interpolation-filters="sRGB">
<feFlood flood-opacity="0" result="BackgroundImageFix"/>
<feColorMatrix in="SourceAlpha" type="matrix" values="0 0 0 0 0 0 0 0 0 0 0 0 0 0 0 0 0 0 127 0" result="hardAlpha"/>
<feOffset dx="4" dy="2"/>
<feGaussianBlur stdDeviation="2"/>
<feComposite in2="hardAlpha" operator="out"/>
<feColorMatrix type="matrix" values="0 0 0 0 0.37106 0 0 0 0 0.495833 0 0 0 0 0.0971007 0 0 0 0.2 0"/>
<feBlend mode="normal" in2="BackgroundImageFix" result="effect1_dropShadow_522_6154"/>
<feBlend mode="normal" in="SourceGraphic" in2="effect1_dropShadow_522_6154" result="shape"/>
</filter>
</defs>
</svg>
