<svg width="71" height="62" viewBox="0 0 71 62" fill="none" xmlns="http://www.w3.org/2000/svg">
<rect width="70.2301" height="62" rx="15" fill="white"/>
<g opacity="0.8">
<path d="M52.084 32.1773C49.327 26.4425 42.189 29.417 42.189 29.417C42.189 29.417 39.7265 22.0686 33.6128 23.7619C27.8199 25.3556 27.5567 37.1151 35.193 44.7725C45.9594 45.4993 54.6829 37.5943 52.084 32.1773Z" fill="#E54045"/>
<g filter="url(#filter0_d_866_10237)">
<path d="M46.0182 19.4864C39.3796 13.9494 32.2303 21.6471 32.2303 21.6471C32.2303 21.6471 25.047 13.9494 18.4424 19.4864C12.1783 24.7195 18.4765 39.4059 32.2303 44.5714C45.9501 39.4059 52.2823 24.7195 46.0182 19.4864Z" fill="#EF5252"/>
</g>
<path d="M46.8011 31.6742H41.1498L39.0391 27.0151C38.971 26.8801 38.8348 26.7788 38.6646 26.7788C38.4944 26.7788 38.3582 26.9138 38.3242 27.0489L35.3283 39.2031L32.1962 23.2338C32.1622 23.065 32.026 22.9299 31.8217 22.9299C31.6515 22.9299 31.4813 23.0312 31.4473 23.2L27.9067 36.3334L26.2726 26.4074C26.2385 26.2386 26.1364 26.1373 25.9662 26.1035C25.7959 26.0698 25.6598 26.1373 25.5576 26.3061L22.9703 30.9653H17.2849C17.387 31.2016 17.4892 31.4717 17.6254 31.708H23.2086C23.3448 31.708 23.4809 31.6405 23.549 31.5054L25.6938 27.6228L27.4301 38.224C27.4641 38.3929 27.6003 38.5279 27.7705 38.5279C27.9407 38.5279 28.1109 38.4266 28.145 38.2578L31.7196 25.0232L34.8857 41.0938C34.9198 41.2626 35.0559 41.3977 35.2602 41.3977C35.4304 41.3977 35.6006 41.2626 35.6347 41.0938L38.8008 28.2981L40.5711 32.1807C40.6392 32.3157 40.7753 32.417 40.9115 32.417H46.4267C46.5628 32.1807 46.699 31.9106 46.8011 31.6742Z" fill="#FFC1C1"/>
</g>
<defs>
<filter id="filter0_d_866_10237" x="16.0139" y="17.4832" width="40.4275" height="35.0884" filterUnits="userSpaceOnUse" color-interpolation-filters="sRGB">
<feFlood flood-opacity="0" result="BackgroundImageFix"/>
<feColorMatrix in="SourceAlpha" type="matrix" values="0 0 0 0 0 0 0 0 0 0 0 0 0 0 0 0 0 0 127 0" result="hardAlpha"/>
<feOffset dx="4" dy="4"/>
<feGaussianBlur stdDeviation="2"/>
<feComposite in2="hardAlpha" operator="out"/>
<feColorMatrix type="matrix" values="0 0 0 0 0.4375 0 0 0 0 0.0929687 0 0 0 0 0.0929687 0 0 0 0.15 0"/>
<feBlend mode="normal" in2="BackgroundImageFix" result="effect1_dropShadow_866_10237"/>
<feBlend mode="normal" in="SourceGraphic" in2="effect1_dropShadow_866_10237" result="shape"/>
</filter>
</defs>
</svg>
